<svg width="12" height="12" viewBox="0 0 12 12" fill="none" xmlns="http://www.w3.org/2000/svg">
<path d="M6.56 4.86C6.56 4.99333 6.59333 5.1 6.66 5.18C6.74 5.24667 6.84667 5.28 6.98 5.28H11C11.1333 5.28 11.2333 5.32 11.3 5.4C11.38 5.46667 11.42 5.56667 11.42 5.7V5.86C11.42 5.99333 11.38 6.1 11.3 6.18C11.2333 6.24667 11.1333 6.28 11 6.28H6.98C6.84667 6.28 6.74 6.32 6.66 6.4C6.59333 6.46667 6.56 6.56667 6.56 6.7V10.72C6.56 10.8533 6.52 10.96 6.44 11.04C6.37333 11.1067 6.27333 11.14 6.14 11.14H5.98C5.84667 11.14 5.74 11.1067 5.66 11.04C5.59333 10.96 5.56 10.8533 5.56 10.72V6.7C5.56 6.56667 5.52 6.46667 5.44 6.4C5.37333 6.32 5.27333 6.28 5.14 6.28H1.12C0.986667 6.28 0.88 6.24667 0.8 6.18C0.733333 6.1 0.7 5.99333 0.7 5.86V5.7C0.7 5.56667 0.733333 5.46667 0.8 5.4C0.88 5.32 0.986667 5.28 1.12 5.28H5.14C5.27333 5.28 5.37333 5.24667 5.44 5.18C5.52 5.1 5.56 4.99333 5.56 4.86V0.839999C5.56 0.706666 5.59333 0.606666 5.66 0.539999C5.74 0.46 5.84667 0.42 5.98 0.42H6.14C6.27333 0.42 6.37333 0.46 6.44 0.539999C6.52 0.606666 6.56 0.706666 6.56 0.839999V4.86Z" fill="white"/>
</svg>
